<?xml version="1.0" encoding="utf-8"?>
<!-- Generator: Adobe Illustrator 15.0.0, SVG Export Plug-In  -->
<!DOCTYPE svg PUBLIC "-//W3C//DTD SVG 1.1//EN" "http://www.w3.org/Graphics/SVG/1.1/DTD/svg11.dtd" [
	<!ENTITY ns_flows "http://ns.adobe.com/Flows/1.0/">
]>
<svg version="1.1"
	 xmlns="http://www.w3.org/2000/svg" xmlns:xlink="http://www.w3.org/1999/xlink" xmlns:a="http://ns.adobe.com/AdobeSVGViewerExtensions/3.0/"
	 x="0px" y="0px" width="925px" height="610px" viewBox="0 0 925 610" enable-background="new 0 0 925 610" xml:space="preserve">
<defs>
</defs>
<g>
	<defs>
		<rect id="SVGID_1_" width="924.999" height="610.001"/>
	</defs>
	<clipPath id="SVGID_2_">
		<use xlink:href="#SVGID_1_"  overflow="visible"/>
	</clipPath>
	<path clip-path="url(#SVGID_2_)" fill="#FFFFFF" d="M423.789,161.289c10.498-10.498,21.334-12.278,21.334-12.278l10.098-123.783
		l-2.889,2.889c-16.565,97.714-52.368,109.347-52.368,109.347s-11.633,35.803-109.347,52.368l-2.889,2.889l123.783-10.098
		C411.511,182.623,413.291,171.787,423.789,161.289"/>
	<path clip-path="url(#SVGID_2_)" fill="#FFFFFF" d="M525.036,137.464c0,0-35.802-11.633-52.368-109.347l-2.889-2.888
		l10.099,123.782c0,0,10.836,1.78,21.333,12.278c10.498,10.497,12.278,21.334,12.278,21.334l123.783,10.098l-2.889-2.888
		C536.67,173.267,525.036,137.464,525.036,137.464"/>
	<path clip-path="url(#SVGID_2_)" fill="#FFFFFF" d="M423.789,238.712c-10.498-10.498-12.278-21.334-12.278-21.334L287.728,207.28
		l2.889,2.889c97.714,16.566,109.347,52.368,109.347,52.368s35.803,11.633,52.368,109.347l2.889,2.889L445.123,250.99
		C445.123,250.99,434.287,249.21,423.789,238.712"/>
	<path clip-path="url(#SVGID_2_)" fill="#FFFFFF" d="M513.489,217.378c0,0-1.78,10.836-12.278,21.334
		c-10.497,10.498-21.333,12.278-21.333,12.278l-10.099,123.784l2.889-2.891c16.566-97.714,52.368-109.347,52.368-109.347
		s11.634-35.802,109.347-52.368l2.889-2.889L513.489,217.378z"/>
	<path clip-path="url(#SVGID_2_)" fill="#FFFFFF" d="M436.252,190.658c-5.021-2.899-16.959-13.253-16.959-13.253
		s-4.171,12.998-3.664,17.445c0.005,0.043,0.008,0.1,0.013,0.145l-150.124,3.27L262.5,200l3.018,1.736l150.124,3.27
		c-0.005,0.045-0.008,0.102-0.013,0.145c-0.507,4.447,3.664,17.444,3.664,17.444s11.938-10.354,16.959-13.252
		c5.021-2.899,22.178-9.343,22.178-9.343S441.273,193.557,436.252,190.658"/>
	<path clip-path="url(#SVGID_2_)" fill="#FFFFFF" d="M467.65,151.848c-0.052,0.006-0.12,0.01-0.174,0.015l-3.24-148.844L462.499,0
		l-1.736,3.019l-3.24,148.844c-0.054-0.005-0.123-0.009-0.175-0.015c-4.447-0.507-17.444,4.945-17.444,4.945
		s10.354,11.939,13.253,16.96s9.343,22.178,9.343,22.178s6.444-17.157,9.343-22.178s13.253-16.96,13.253-16.96
		S472.098,151.341,467.65,151.848"/>
	<path clip-path="url(#SVGID_2_)" fill="#FFFFFF" d="M662.5,200l-3.02-1.736l-150.123-3.27c0.005-0.045,0.008-0.102,0.014-0.145
		c0.506-4.447-3.664-17.445-3.664-17.445s-11.938,10.354-16.959,13.253C483.727,193.557,466.57,200,466.57,200
		s17.156,6.444,22.178,9.343c5.021,2.899,16.959,13.253,16.959,13.253s4.17-12.998,3.664-17.445
		c-0.006-0.044-0.009-0.101-0.014-0.146l150.123-3.269L662.5,200z"/>
	<path clip-path="url(#SVGID_2_)" fill="#FFFFFF" d="M471.843,226.248c-2.898-5.021-9.343-22.177-9.343-22.177
		s-6.444,17.156-9.343,22.177c-2.898,5.021-13.252,16.959-13.252,16.959s12.998,4.171,17.444,3.664
		c0.044-0.005,0.101-0.008,0.146-0.013l3.269,150.125l1.736,3.019l1.736-3.019l3.27-150.125c0.045,0.005,0.102,0.008,0.146,0.013
		c4.447,0.507,17.444-3.664,17.444-3.664S474.74,231.269,471.843,226.248"/>
	<polygon clip-path="url(#SVGID_2_)" fill="#FFFFFF" points="60,516.46 16.77,430.001 0,430.001 50,530.001 70,530.001 120,430.001 
		103.23,430.001 	"/>
	<rect x="130" y="430.001" clip-path="url(#SVGID_2_)" fill="#FFFFFF" width="15" height="100"/>
	<polygon clip-path="url(#SVGID_2_)" fill="#FFFFFF" points="260,430.001 260,509.949 170.008,430.008 170,430.001 155,430.001 
		155,530.001 170,530.001 170,450.053 260,530.001 275,530.001 275,430.001 	"/>
	<polygon clip-path="url(#SVGID_2_)" fill="#FFFFFF" points="390,430.001 390,470.001 300,470.001 300,430.001 285,430.001 
		285,470.001 285,485.001 285,530.001 300,530.001 300,485.001 390,485.001 390,530.001 405,530.001 405,485.001 405,470.001 
		405,430.001 	"/>
	<path clip-path="url(#SVGID_2_)" fill="#FFFFFF" d="M520,500.001c0,8.271-6.729,15-15,15h-60c-8.271,0-15-6.729-15-15v-40
		c0-8.271,6.729-15.001,15-15.001h60c8.271,0,15,6.729,15,15.001h15c0-16.568-13.432-30-30-30h-60c-16.568,0-30,13.432-30,30v40
		c0,16.568,13.432,30,30,30h60c16.568,0,30-13.432,30-30H520z"/>
	<path clip-path="url(#SVGID_2_)" fill="#FFFFFF" d="M614.999,430.001h-20l-50,100h16.771l15.001-30h56.459l15.001,30h16.769
		L614.999,430.001z M584.271,485.001l20.729-41.459l20.73,41.459H584.271z"/>
	<path clip-path="url(#SVGID_2_)" fill="#FFFFFF" d="M874.999,430.001h-20l-50,100h16.771l15.001-30h56.459l15.001,30h16.769
		L874.999,430.001z M844.271,485.001l20.729-41.459l20.73,41.459H844.271z"/>
	<path clip-path="url(#SVGID_2_)" fill="#FFFFFF" d="M675,430.001L675,430.001v100h15v-85h75c8.284,0,15,6.716,15,15v10
		c0,8.284-6.716,15-15,15h-43.243l50.657,45H795l-33.771-30H765c16.568,0,30-13.432,30-30v-10c0-16.568-13.432-30-30-30H675z"/>
	<path clip-path="url(#SVGID_2_)" fill="#FFFFFF" d="M167.5,401.871c-0.042,3.785-0.232,6.495-0.57,8.13
		c-0.295,1.72-0.928,3.29-1.898,4.709c-2.279,3.527-5.444,5.291-9.494,5.291c-3.586,0-9.409-1.184-17.468-3.549
		c-7.68-2.236-12.595-3.354-14.747-3.354c-2.785,0-4.219,1.677-4.304,5.032H107.5c0.126-5.807,1.097-10.021,2.912-12.646
		c2.573-3.656,6.244-5.483,11.012-5.483c2.025,0,3.988,0.236,5.886,0.709c1.477,0.259,5.591,1.355,12.342,3.291
		c6.709,1.936,11.076,2.903,13.101,2.903c1.266,0,2.11-0.323,2.532-0.968c0.422-0.646,0.675-2,0.759-4.065H167.5z"/>
	<rect x="453.625" y="582.818" clip-path="url(#SVGID_2_)" fill="#FFFFFF" width="17.75" height="4.364"/>
	<path clip-path="url(#SVGID_2_)" fill="#FFFFFF" d="M146.192,605.157c-2.062,1.318-4.589,2.338-7.585,3.06
		c-2.677,0.617-5.396,0.924-8.158,0.924h-14.086V560.83h14.086c2.783,0,5.502,0.318,8.158,0.956c2.974,0.701,5.502,1.71,7.585,3.027
		c7.307,4.674,10.962,11.44,10.962,20.3C157.154,593.717,153.5,600.399,146.192,605.157 M144.088,568.924
		c-2.146-1.508-4.684-2.537-7.616-3.091c-1.233-0.233-2.592-0.402-4.079-0.51c-1.19-0.063-2.592-0.096-4.207-0.096h-6.978v39.55
		h7.998c1.614,0,3.006-0.044,4.175-0.13c1.444-0.105,2.761-0.285,3.951-0.542c2.762-0.594,5.237-1.677,7.425-3.25
		c2.401-1.741,4.281-4.1,5.641-7.074c1.274-2.805,1.912-5.757,1.912-8.859C152.311,578.038,149.569,572.706,144.088,568.924"/>
	<rect x="165.025" y="560.83" clip-path="url(#SVGID_2_)" fill="#FFFFFF" width="4.844" height="48.311"/>
	<path clip-path="url(#SVGID_2_)" fill="#FFFFFF" d="M217.097,609.141l-7.011-16.252h-22.434l-7.043,16.252h-5.035l20.618-48.311
		h5.418l20.745,48.311H217.097z M198.933,566.343l-9.465,22.18h18.738L198.933,566.343z"/>
	<polygon clip-path="url(#SVGID_2_)" fill="#FFFFFF" points="273.247,609.141 273.247,566.119 273.12,566.119 255.051,609.141 
		250.94,609.141 232.998,566.119 232.871,566.119 232.871,609.141 228.027,609.141 228.027,560.828 235.453,560.828 
		253.011,601.971 270.634,560.828 278.091,560.828 278.091,609.141 	"/>
	<path clip-path="url(#SVGID_2_)" fill="#FFFFFF" d="M329.333,602.735c-5.014,4.844-10.994,7.266-17.941,7.266
		c-6.841,0-12.79-2.401-17.846-7.202c-5.12-4.886-7.68-10.74-7.68-17.559c0-7.011,2.496-12.98,7.489-17.909
		c4.972-4.886,10.983-7.33,18.037-7.33c6.968,0,12.96,2.422,17.973,7.265c5.077,4.889,7.616,10.793,7.616,17.72
		S334.433,597.828,329.333,602.735 M326.02,570.454c-4.079-4.058-8.955-6.087-14.627-6.087c-5.736,0-10.623,2.051-14.659,6.148
		c-4.015,4.103-6.023,9.011-6.023,14.725c0,5.566,2.06,10.357,6.183,14.372c4.079,3.995,8.912,5.991,14.499,5.991
		c5.651,0,10.516-2.008,14.595-6.022c4.1-4.016,6.151-8.859,6.151-14.532C332.139,579.377,330.099,574.513,326.02,570.454"/>
	<polygon clip-path="url(#SVGID_2_)" fill="#FFFFFF" points="378.25,609.141 349.602,566.661 349.475,566.661 349.475,609.141 
		344.63,609.141 344.63,560.828 351.164,560.828 378.124,600.919 378.25,600.919 378.25,560.828 383.063,560.828 383.063,609.141 	
		"/>
	<path clip-path="url(#SVGID_2_)" fill="#FFFFFF" d="M422.674,605.157c-2.062,1.318-4.589,2.338-7.585,3.06
		c-2.677,0.617-5.396,0.924-8.158,0.924h-14.086V560.83h14.086c2.783,0,5.502,0.318,8.158,0.956c2.974,0.701,5.502,1.71,7.585,3.027
		c7.307,4.674,10.962,11.44,10.962,20.3C433.636,593.717,429.981,600.399,422.674,605.157 M420.57,568.924
		c-2.146-1.508-4.685-2.537-7.616-3.091c-1.233-0.233-2.592-0.402-4.079-0.51c-1.19-0.063-2.592-0.096-4.207-0.096h-6.979v39.55
		h7.999c1.614,0,3.006-0.044,4.174-0.13c1.445-0.105,2.762-0.285,3.952-0.542c2.762-0.594,5.236-1.677,7.425-3.25
		c2.401-1.741,4.281-4.1,5.641-7.074c1.274-2.805,1.912-5.757,1.912-8.859C428.792,578.038,426.051,572.706,420.57,568.924"/>
	<path clip-path="url(#SVGID_2_)" fill="#FFFFFF" d="M517.177,595.692l-0.128,2.358c-0.17,1.785-0.531,3.294-1.083,4.525
		c-2.018,4.675-5.843,7.011-11.473,7.011c-3.676,0-6.734-1.147-9.178-3.441c-2.443-2.295-3.761-5.258-3.95-8.892h4.778
		c0.361,5.29,3.166,7.936,8.413,7.936c3.208,0,5.407-1.231,6.599-3.696c0.486-0.998,0.827-2.241,1.019-3.729
		c0.127-1.104,0.191-2.496,0.191-4.175v-33.174h4.843L517.177,595.692z"/>
	<polygon clip-path="url(#SVGID_2_)" fill="#FFFFFF" points="531.089,608.727 531.089,560.416 557.507,560.416 557.507,564.813 
		535.933,564.813 535.933,582.149 556.806,582.149 556.806,586.547 535.933,586.547 535.933,604.36 557.507,604.36 557.507,608.727 
			"/>
	<polygon clip-path="url(#SVGID_2_)" fill="#FFFFFF" points="617.369,608.727 611.219,608.727 600.607,569.115 600.448,569.115 
		589.899,608.727 583.686,608.727 569.919,560.416 574.89,560.416 586.682,602.513 586.807,602.513 598.313,560.416 
		602.806,560.416 614.374,602.449 614.502,602.449 626.293,560.416 631.2,560.416 	"/>
	<polygon clip-path="url(#SVGID_2_)" fill="#FFFFFF" points="644.862,608.727 644.862,560.416 671.28,560.416 671.28,564.813 
		649.706,564.813 649.706,582.149 670.579,582.149 670.579,586.547 649.706,586.547 649.706,604.36 671.28,604.36 671.28,608.727 	
		"/>
	<polygon clip-path="url(#SVGID_2_)" fill="#FFFFFF" points="685.687,608.727 685.687,560.416 690.53,560.416 690.53,604.36 
		710.479,604.36 710.479,608.727 	"/>
	<path clip-path="url(#SVGID_2_)" fill="#FFFFFF" d="M754.082,586.26c-2.699,2.699-6.098,4.187-10.198,4.462l13.64,18.005h-6.088
		l-16.379-21.861l5.227-0.031c2.188-0.064,3.909-0.297,5.162-0.701c5.312-1.614,7.967-5.023,7.967-10.229
		c0-4.271-1.764-7.361-5.29-9.273c-1.381-0.743-2.899-1.253-4.558-1.529c-1.231-0.191-2.846-0.287-4.843-0.287h-8.413v43.913h-4.844
		v-48.311h12.268c1.085,0,2.062,0.021,2.933,0.063c1.126,0.063,2.156,0.149,3.092,0.255c2.379,0.298,4.334,0.808,5.863,1.529
		c5.734,2.763,8.604,7.352,8.604,13.768C758.225,580.089,756.844,583.499,754.082,586.26"/>
	<polygon clip-path="url(#SVGID_2_)" fill="#FFFFFF" points="791.683,592.602 791.683,608.727 786.839,608.727 786.839,592.602 
		770.076,560.416 775.431,560.416 789.197,587.503 803.346,560.416 808.636,560.416 	"/>
</g>
</svg>
